<?xml version="1.0" standalone="no"?>
<!DOCTYPE svg PUBLIC "-//W3C//DTD SVG 20010904//EN"
 "http://www.w3.org/TR/2001/REC-SVG-20010904/DTD/svg10.dtd">
<svg version="1.0" xmlns="http://www.w3.org/2000/svg"
 width="128.000000pt" height="128.000000pt" viewBox="0 0 128.000000 128.000000"
 preserveAspectRatio="xMidYMid meet">
<metadata>
Created by potrace 1.14, written by Peter Selinger 2001-2017
</metadata>
<g transform="translate(0.000000,128.000000) scale(0.100000,-0.100000)"
fill="#000000" stroke="none">
<path d="M444 1190 c-69 -21 -134 -121 -134 -205 0 -39 25 -114 48 -140 92
-109 237 -90 305 40 46 88 13 228 -66 282 -38 26 -108 36 -153 23z"/>
<path d="M845 1089 c-36 -10 -90 -60 -113 -103 -23 -46 -22 -153 3 -191 29
-44 40 -54 79 -70 46 -20 72 -19 122 4 154 70 167 295 21 356 -40 17 -67 18
-112 4z"/>
<path d="M80 931 c-52 -28 -83 -92 -76 -159 11 -102 85 -176 176 -175 137 0
195 175 98 294 -46 56 -135 74 -198 40z"/>
<path d="M1055 751 c-51 -23 -80 -56 -98 -107 -39 -108 16 -209 119 -218 59
-5 97 10 142 54 66 66 79 164 31 231 -42 59 -118 75 -194 40z"/>
<path d="M589 746 c-2 -2 -22 -6 -44 -9 -101 -11 -164 -61 -259 -207 -114
-174 -121 -188 -120 -255 1 -142 127 -222 275 -175 104 33 181 36 269 9 126
-38 191 -31 253 29 75 72 81 173 16 270 -16 24 -29 45 -29 47 0 18 -130 192
-163 219 -44 36 -183 86 -198 72z"/>
</g>
</svg>
