<?xml version="1.0" standalone="no"?>
<!DOCTYPE svg PUBLIC "-//W3C//DTD SVG 20010904//EN"
 "http://www.w3.org/TR/2001/REC-SVG-20010904/DTD/svg10.dtd">
<svg version="1.0" xmlns="http://www.w3.org/2000/svg"
 width="700.000000pt" height="700.000000pt" viewBox="0 0 700.000000 700.000000"
 preserveAspectRatio="xMidYMid meet">
<metadata>
Created by potrace 1.14, written by Peter Selinger 2001-2017
</metadata>
<g transform="translate(0.000000,700.000000) scale(0.100000,-0.100000)"
fill="#000000" stroke="none">
<path d="M2127 6994 c-1 -1 -29 -4 -62 -7 -284 -27 -619 -144 -865 -301 -237
-152 -478 -390 -623 -617 -143 -223 -250 -492 -291 -729 -3 -19 -8 -46 -11
-60 -17 -89 -20 -305 -20 -1730 l0 -1585 60 3 c227 10 446 51 624 118 36 14
75 28 86 31 114 36 452 243 554 341 10 10 35 33 57 53 113 105 235 249 324
385 95 145 204 386 251 554 36 128 56 236 66 360 5 47 8 783 8 1635 l0 1550
-78 0 c-43 1 -79 0 -80 -1z"/>
<path d="M4319 6995 c-2 -2 -33 -6 -69 -9 -36 -3 -76 -8 -90 -11 -14 -3 -43
-8 -65 -11 -61 -9 -262 -69 -362 -107 -451 -174 -850 -540 -1071 -982 -74
-148 -144 -345 -168 -470 -5 -22 -9 -42 -9 -45 -14 -69 -22 -124 -30 -215 -14
-162 -14 -174 4 -179 22 -6 2549 1 2581 7 14 3 46 8 70 11 209 29 401 89 605
188 96 46 105 52 230 133 164 106 314 242 450 406 46 55 113 146 129 174 9 17
31 53 48 80 162 263 271 626 282 948 l3 87 -1267 0 c-697 0 -1269 -2 -1271 -5z"/>
<path d="M6818 5155 c-2 -1 -50 -5 -108 -8 -58 -4 -114 -8 -125 -10 -11 -3
-40 -8 -65 -11 -78 -10 -274 -64 -377 -102 -405 -151 -751 -429 -996 -799
-126 -191 -256 -507 -284 -690 -2 -16 -8 -46 -13 -65 -8 -32 -13 -66 -25 -185
-4 -30 -8 -2440 -5 -3068 l0 -99 111 6 c61 3 120 8 132 11 12 3 40 7 62 9 232
27 562 150 782 292 275 177 491 398 655 670 138 227 227 471 267 729 6 39 14
88 17 110 4 22 8 752 8 1622 2 1490 1 1582 -16 1586 -9 3 -18 4 -20 2z"/>
<path d="M2005 2029 c-33 -4 -89 -10 -125 -14 -36 -4 -67 -8 -71 -10 -3 -2
-21 -7 -40 -10 -196 -33 -481 -149 -682 -277 -99 -64 -83 -51 -192 -142 -185
-153 -283 -261 -410 -451 -72 -108 -185 -320 -185 -347 0 -8 -4 -18 -8 -23
-16 -18 -89 -243 -97 -300 -2 -11 -11 -58 -19 -105 -16 -86 -28 -203 -30 -295
l-1 -50 1290 0 c1186 0 1298 1 1392 18 533 92 972 350 1295 762 71 91 81 105
125 176 150 240 249 517 289 809 12 81 19 205 15 251 -1 15 -107 16 -1243 15
-684 0 -1270 -3 -1303 -7z"/>
</g>
</svg>
